%
M48
M72
T01C0.0236
T02C0.0315
T03C0.0320
T04C0.0400
%
T01
X1994Y9101
X16944Y7401
X21494Y6101
X23994Y8601
X23494Y601
T02
X14289Y4609
X14289Y5593
X3699Y5101
T03
X4994Y12601
X4994Y13601
X1994Y13601
X1994Y12601
X7994Y12601
X7994Y13601
X10994Y13601
X10994Y12601
X13994Y12601
X13994Y13601
X16994Y13601
X16994Y12601
X19994Y12601
X19994Y13601
T04
X1494Y3601
X1494Y4601
X1494Y5601
X1494Y6601
X1494Y7601
X19494Y1601
X20494Y1601
X21494Y1601
X26104Y3821
X27884Y3821
X27884Y6381
X26104Y6381
X26104Y7821
X27884Y7821
X27884Y10381
X26104Y10381
M30
