G75*
G70*
%OFA0B0*%
%FSLAX24Y24*%
%IPPOS*%
%LPD*%
%AMOC8*
5,1,8,0,0,1.08239X$1,22.5*
%
%ADD10R,0.0236X0.0866*%
%ADD11R,0.0591X0.0512*%
%ADD12R,0.0433X0.0394*%
D10*
X018244Y003790D03*
X018744Y003790D03*
X019244Y003790D03*
X019744Y003790D03*
X020244Y003790D03*
X020744Y003790D03*
X021244Y003790D03*
X021744Y003790D03*
X022244Y003790D03*
X022744Y003790D03*
X023244Y003790D03*
X023744Y003790D03*
X024244Y003790D03*
X024744Y003790D03*
X024744Y007412D03*
X024244Y007412D03*
X023744Y007412D03*
X023244Y007412D03*
X022744Y007412D03*
X022244Y007412D03*
X021744Y007412D03*
X021244Y007412D03*
X020744Y007412D03*
X020244Y007412D03*
X019744Y007412D03*
X019244Y007412D03*
X018744Y007412D03*
X018244Y007412D03*
D11*
X016994Y010266D03*
X016994Y010935D03*
X019994Y010935D03*
X019994Y010266D03*
X013994Y010266D03*
X013994Y010935D03*
X010994Y010935D03*
X010994Y010266D03*
X007994Y010266D03*
X007994Y010935D03*
X004994Y010935D03*
X004994Y010266D03*
X001994Y010266D03*
X001994Y010935D03*
X025994Y001935D03*
X025994Y001266D03*
X027494Y001266D03*
X027494Y001935D03*
D12*
X023029Y009001D03*
X022359Y009001D03*
M02*
