G75*
G70*
%OFA0B0*%
%FSLAX24Y24*%
%IPPOS*%
%LPD*%
%AMOC8*
5,1,8,0,0,1.08239X$1,22.5*
%
%ADD10C,0.0680*%
%ADD11R,0.0316X0.0946*%
%ADD12R,0.0671X0.0592*%
%ADD13OC8,0.0600*%
%ADD14R,0.0513X0.0474*%
%ADD15R,0.0595X0.0595*%
%ADD16C,0.0476*%
D10*
X001494Y003601D03*
X001494Y004601D03*
X001494Y005601D03*
X001494Y006601D03*
X001494Y007601D03*
X019494Y001601D03*
X020494Y001601D03*
X021494Y001601D03*
X026104Y003821D03*
X027884Y003821D03*
X027884Y006381D03*
X026104Y006381D03*
X026104Y007821D03*
X027884Y007821D03*
X027884Y010381D03*
X026104Y010381D03*
D11*
X024744Y007412D03*
X024244Y007412D03*
X023744Y007412D03*
X023244Y007412D03*
X022744Y007412D03*
X022244Y007412D03*
X021744Y007412D03*
X021244Y007412D03*
X020744Y007412D03*
X020244Y007412D03*
X019744Y007412D03*
X019244Y007412D03*
X018744Y007412D03*
X018244Y007412D03*
X018244Y003790D03*
X018744Y003790D03*
X019244Y003790D03*
X019744Y003790D03*
X020244Y003790D03*
X020744Y003790D03*
X021244Y003790D03*
X021744Y003790D03*
X022244Y003790D03*
X022744Y003790D03*
X023244Y003790D03*
X023744Y003790D03*
X024244Y003790D03*
X024744Y003790D03*
D12*
X025994Y001935D03*
X025994Y001266D03*
X027494Y001266D03*
X027494Y001935D03*
X019994Y010266D03*
X019994Y010935D03*
X016994Y010935D03*
X016994Y010266D03*
X013994Y010266D03*
X013994Y010935D03*
X010994Y010935D03*
X010994Y010266D03*
X007994Y010266D03*
X007994Y010935D03*
X004994Y010935D03*
X004994Y010266D03*
X001994Y010266D03*
X001994Y010935D03*
D13*
X001994Y012601D03*
X001994Y013601D03*
X004994Y013601D03*
X004994Y012601D03*
X007994Y012601D03*
X007994Y013601D03*
X010994Y013601D03*
X010994Y012601D03*
X013994Y012601D03*
X013994Y013601D03*
X016994Y013601D03*
X016994Y012601D03*
X019994Y012601D03*
X019994Y013601D03*
D14*
X022359Y009001D03*
X023029Y009001D03*
D15*
X014289Y005593D03*
X014289Y004609D03*
X003699Y005101D03*
D16*
X001994Y009101D03*
X016944Y007401D03*
X021494Y006101D03*
X023994Y008601D03*
X023494Y000601D03*
M02*
