G75*
G70*
%OFA0B0*%
%FSLAX24Y24*%
%IPPOS*%
%LPD*%
%AMOC8*
5,1,8,0,0,1.08239X$1,22.5*
%
%ADD10C,0.0000*%
%ADD11C,0.0600*%
%ADD12R,0.0236X0.0866*%
%ADD13R,0.0591X0.0512*%
%ADD14OC8,0.0520*%
%ADD15R,0.0433X0.0394*%
%ADD16R,0.0515X0.0515*%
%ADD17C,0.0160*%
%ADD18C,0.0396*%
D10*
X000494Y000101D02*
X000494Y014597D01*
X029364Y014597D01*
X029364Y000101D01*
X000494Y000101D01*
D11*
X001494Y003601D03*
X001494Y004601D03*
X001494Y005601D03*
X001494Y006601D03*
X001494Y007601D03*
X019494Y001601D03*
X020494Y001601D03*
X021494Y001601D03*
X026104Y003821D03*
X027884Y003821D03*
X027884Y006381D03*
X026104Y006381D03*
X026104Y007821D03*
X027884Y007821D03*
X027884Y010381D03*
X026104Y010381D03*
D12*
X024744Y007412D03*
X024244Y007412D03*
X023744Y007412D03*
X023244Y007412D03*
X022744Y007412D03*
X022244Y007412D03*
X021744Y007412D03*
X021244Y007412D03*
X020744Y007412D03*
X020244Y007412D03*
X019744Y007412D03*
X019244Y007412D03*
X018744Y007412D03*
X018244Y007412D03*
X018244Y003790D03*
X018744Y003790D03*
X019244Y003790D03*
X019744Y003790D03*
X020244Y003790D03*
X020744Y003790D03*
X021244Y003790D03*
X021744Y003790D03*
X022244Y003790D03*
X022744Y003790D03*
X023244Y003790D03*
X023744Y003790D03*
X024244Y003790D03*
X024744Y003790D03*
D13*
X025994Y001935D03*
X025994Y001266D03*
X027494Y001266D03*
X027494Y001935D03*
X019994Y010266D03*
X019994Y010935D03*
X016994Y010935D03*
X016994Y010266D03*
X013994Y010266D03*
X013994Y010935D03*
X010994Y010935D03*
X010994Y010266D03*
X007994Y010266D03*
X007994Y010935D03*
X004994Y010935D03*
X004994Y010266D03*
X001994Y010266D03*
X001994Y010935D03*
D14*
X001994Y012601D03*
X001994Y013601D03*
X004994Y013601D03*
X004994Y012601D03*
X007994Y012601D03*
X007994Y013601D03*
X010994Y013601D03*
X010994Y012601D03*
X013994Y012601D03*
X013994Y013601D03*
X016994Y013601D03*
X016994Y012601D03*
X019994Y012601D03*
X019994Y013601D03*
D15*
X022359Y009001D03*
X023029Y009001D03*
D16*
X014289Y005593D03*
X014289Y004609D03*
X003699Y005101D03*
D17*
X021144Y005101D01*
X021319Y004926D01*
X022744Y006351D01*
X022744Y007412D01*
X022744Y008101D01*
X023029Y008385D01*
X023029Y009001D01*
X022359Y008916D02*
X022244Y008801D01*
X022244Y007412D01*
X022244Y006851D01*
X021494Y006101D01*
X021319Y004926D02*
X021744Y004501D01*
X021744Y003790D01*
X019544Y002101D02*
X018744Y002901D01*
X018744Y003790D01*
X018244Y003790D02*
X018055Y003601D01*
X001494Y003601D01*
X003199Y005601D02*
X003699Y005101D01*
X003199Y005601D02*
X001494Y005601D01*
X001494Y007601D02*
X015494Y007601D01*
X016494Y006601D01*
X018544Y006601D01*
X018744Y006801D01*
X018744Y007412D01*
X019244Y007412D02*
X019244Y008001D01*
X019044Y008201D01*
X006544Y008201D01*
X004994Y009751D01*
X004994Y010266D01*
X004994Y010935D02*
X004994Y012601D01*
X004994Y013601D02*
X007994Y013601D01*
X010994Y013601D01*
X013994Y013601D01*
X016994Y013601D01*
X019994Y013601D01*
X024664Y013601D01*
X027884Y010381D01*
X027884Y007821D01*
X027884Y006381D01*
X027884Y003821D01*
X027494Y003101D02*
X026774Y003821D01*
X026104Y003821D01*
X026104Y006381D01*
X025494Y007211D02*
X026104Y007821D01*
X026104Y010381D01*
X023994Y008601D02*
X023244Y007851D01*
X023244Y007412D01*
X021744Y007412D02*
X021744Y009751D01*
X021244Y010251D01*
X020009Y010251D01*
X019994Y010266D01*
X019994Y010935D02*
X019994Y012601D01*
X016994Y012601D02*
X016994Y010935D01*
X016994Y010266D02*
X016994Y010101D01*
X017444Y009651D01*
X020644Y009651D01*
X021244Y009051D01*
X021244Y007412D01*
X020744Y007412D02*
X020744Y008801D01*
X020244Y009301D01*
X014694Y009301D01*
X013994Y010001D01*
X013994Y010266D01*
X013994Y010935D02*
X013994Y012601D01*
X010994Y012601D02*
X010994Y010935D01*
X010994Y010266D02*
X010994Y009901D01*
X011994Y008901D01*
X019894Y008901D01*
X020244Y008551D01*
X020244Y007412D01*
X019744Y007412D02*
X019744Y008301D01*
X019494Y008551D01*
X009294Y008551D01*
X007994Y009851D01*
X007994Y010266D01*
X007994Y010935D02*
X007994Y012601D01*
X004994Y013601D02*
X001994Y013601D01*
X001994Y012601D02*
X001994Y010935D01*
X001994Y010266D02*
X001994Y009101D01*
X016944Y007401D02*
X018233Y007401D01*
X018244Y007412D01*
X018244Y003790D02*
X018244Y001351D01*
X018994Y000601D01*
X023494Y000601D01*
X022159Y001266D02*
X021994Y001101D01*
X020994Y001101D01*
X020494Y001601D01*
X019544Y002101D02*
X021994Y002101D01*
X022159Y001935D01*
X025994Y001935D01*
X025994Y002601D01*
X025494Y003101D01*
X025494Y007211D01*
X027494Y003101D02*
X027494Y001935D01*
X027494Y001266D02*
X025994Y001266D01*
X022159Y001266D01*
D18*
X023494Y000601D03*
X021494Y006101D03*
X023994Y008601D03*
X016944Y007401D03*
X001994Y009101D03*
M02*
